<?xml version="1.0" standalone="no"?>
<!DOCTYPE svg PUBLIC "-//W3C//DTD SVG 20010904//EN"
 "http://www.w3.org/TR/2001/REC-SVG-20010904/DTD/svg10.dtd">
<svg version="1.0" xmlns="http://www.w3.org/2000/svg"
 width="700.000000pt" height="700.000000pt" viewBox="0 0 700.000000 700.000000"
 preserveAspectRatio="xMidYMid meet">
<metadata>
Created by potrace 1.11, written by Peter Selinger 2001-2013
</metadata>
<g transform="translate(0.000000,700.000000) scale(0.100000,-0.100000)"
fill="#000000" stroke="none">
<path d="M657 6978 c-7 -4 -11 -72 -11 -207 -1 -170 1 -200 14 -203 8 -2 178
-3 378 -3 l363 1 -4 -2326 c-2 -1279 -7 -2347 -10 -2375 -23 -174 -30 -222
-33 -240 -2 -11 -6 -32 -9 -46 -11 -59 -49 -168 -78 -223 -60 -113 -167 -194
-307 -232 -49 -13 -103 -18 -215 -18 -137 0 -156 2 -222 26 -173 62 -266 183
-307 398 -8 47 -17 112 -18 145 l-3 60 -95 0 -95 0 -3 -461 c-2 -433 -1 -462
15 -467 327 -100 493 -126 773 -121 102 1 194 5 205 7 20 4 95 16 148 23 124
15 352 102 467 176 74 48 67 42 155 128 214 208 339 574 361 1055 1 33 3 1057
3 2275 l1 2216 293 -1 c160 0 299 1 307 3 14 3 16 31 15 208 0 112 -2 204 -5
205 -27 5 -2075 2 -2083 -3z"/>
<path d="M4930 5309 c-421 -41 -769 -156 -1074 -356 -434 -284 -761 -714 -923
-1213 -32 -100 -79 -284 -87 -338 -3 -24 -7 -46 -10 -50 -2 -4 -7 -31 -10 -61
-3 -29 -8 -68 -11 -85 -23 -138 -29 -609 -10 -781 17 -156 25 -216 31 -237 3
-10 7 -30 10 -45 2 -16 7 -39 10 -53 3 -14 8 -36 11 -50 34 -184 179 -551 264
-672 11 -14 19 -29 19 -32 0 -3 27 -45 59 -93 180 -266 416 -500 671 -665 297
-193 651 -312 1020 -345 107 -10 408 -10 519 0 104 9 234 28 321 48 25 6 53
12 64 15 48 9 140 39 239 75 355 132 652 367 860 680 104 158 97 129 97 388
l0 229 -240 1 c-240 0 -241 0 -249 -22 -5 -12 -23 -62 -41 -112 -150 -419
-435 -708 -814 -824 -37 -12 -78 -23 -90 -25 -11 -2 -41 -9 -66 -14 -115 -27
-412 -37 -580 -21 -466 46 -843 312 -1059 749 -26 52 -53 111 -60 130 -7 19
-17 44 -22 55 -25 58 -96 314 -105 380 -3 17 -9 53 -15 80 -5 28 -11 60 -14
73 -2 13 -7 51 -10 85 -3 34 -8 76 -10 92 -19 149 -26 593 -12 795 11 167 22
260 48 410 68 391 196 698 389 935 188 230 463 387 768 439 134 23 185 27 337
27 248 -1 422 -25 610 -86 86 -28 248 -102 253 -116 2 -5 8 -9 13 -9 20 0 126
-86 199 -160 163 -166 270 -373 346 -670 19 -74 37 -137 40 -139 3 -3 91 -6
195 -6 l189 0 0 596 0 596 -137 52 c-76 29 -147 57 -158 61 -31 13 -187 64
-315 104 -241 74 -568 146 -757 167 -54 5 -111 12 -128 15 -52 9 -497 11 -575
3z"/>
</g>
</svg>
